<svg width="141" height="23" viewBox="0 0 141 23" fill="none" xmlns="http://www.w3.org/2000/svg">
<path d="M4.03 9.55H10.15C11.05 9.55 11.8 9.3 12.4 8.8C13 8.28 13.3 7.54 13.3 6.58C13.3 5.5 13.03 4.74 12.49 4.3C11.95 3.86 11.17 3.64 10.15 3.64H4.03V9.55ZM0.28 0.579999H10.69C12.61 0.579999 14.15 1.02 15.31 1.9C16.47 2.78 17.05 4.11 17.05 5.89C17.05 6.97 16.78 7.9 16.24 8.68C15.72 9.44 14.97 10.03 13.99 10.45V10.51C15.31 10.79 16.31 11.42 16.99 12.4C17.67 13.36 18.01 14.57 18.01 16.03C18.01 16.87 17.86 17.66 17.56 18.4C17.26 19.12 16.79 19.75 16.15 20.29C15.51 20.81 14.69 21.23 13.69 21.55C12.69 21.85 11.5 22 10.12 22H0.28V0.579999ZM4.03 18.94H10.66C11.8 18.94 12.68 18.65 13.3 18.07C13.94 17.47 14.26 16.63 14.26 15.55C14.26 14.49 13.94 13.68 13.3 13.12C12.68 12.54 11.8 12.25 10.66 12.25H4.03V18.94ZM21.403 0.579999H31.633C33.993 0.579999 35.763 1.09 36.943 2.11C38.123 3.13 38.713 4.55 38.713 6.37C38.713 7.39 38.563 8.24 38.263 8.92C37.963 9.58 37.613 10.12 37.213 10.54C36.813 10.94 36.413 11.23 36.013 11.41C35.633 11.59 35.353 11.71 35.173 11.77V11.83C35.493 11.87 35.833 11.97 36.193 12.13C36.573 12.29 36.923 12.55 37.243 12.91C37.563 13.25 37.823 13.7 38.023 14.26C38.243 14.82 38.353 15.52 38.353 16.36C38.353 17.62 38.443 18.77 38.623 19.81C38.823 20.83 39.123 21.56 39.523 22H35.503C35.223 21.54 35.053 21.03 34.993 20.47C34.953 19.91 34.933 19.37 34.933 18.85C34.933 17.87 34.873 17.03 34.753 16.33C34.633 15.61 34.413 15.02 34.093 14.56C33.773 14.08 33.333 13.73 32.773 13.51C32.233 13.29 31.533 13.18 30.673 13.18H25.153V22H21.403V0.579999ZM25.153 10.33H31.303C32.503 10.33 33.413 10.05 34.033 9.49C34.653 8.91 34.963 8.05 34.963 6.91C34.963 6.23 34.863 5.68 34.663 5.26C34.463 4.82 34.183 4.48 33.823 4.24C33.483 4 33.083 3.84 32.623 3.76C32.183 3.68 31.723 3.64 31.243 3.64H25.153V10.33ZM42.5261 0.579999H46.2761V22H42.5261V0.579999ZM53.3357 14.86C53.3357 15.68 53.4757 16.38 53.7557 16.96C54.0357 17.54 54.4257 18.02 54.9257 18.4C55.4257 18.76 55.9957 19.03 56.6357 19.21C57.2957 19.37 58.0057 19.45 58.7657 19.45C59.5857 19.45 60.2857 19.36 60.8657 19.18C61.4457 18.98 61.9157 18.73 62.2757 18.43C62.6357 18.13 62.8957 17.79 63.0557 17.41C63.2157 17.01 63.2957 16.61 63.2957 16.21C63.2957 15.39 63.1057 14.79 62.7257 14.41C62.3657 14.01 61.9657 13.73 61.5257 13.57C60.7657 13.29 59.8757 13.03 58.8557 12.79C57.8557 12.53 56.6157 12.2 55.1357 11.8C54.2157 11.56 53.4457 11.25 52.8257 10.87C52.2257 10.47 51.7457 10.03 51.3857 9.55C51.0257 9.07 50.7657 8.56 50.6057 8.02C50.4657 7.48 50.3957 6.93 50.3957 6.37C50.3957 5.29 50.6157 4.36 51.0557 3.58C51.5157 2.78 52.1157 2.12 52.8557 1.6C53.5957 1.08 54.4357 0.699999 55.3757 0.459998C56.3157 0.199999 57.2657 0.0699998 58.2257 0.0699998C59.3457 0.0699998 60.3957 0.22 61.3757 0.519999C62.3757 0.799999 63.2457 1.23 63.9857 1.81C64.7457 2.39 65.3457 3.11 65.7857 3.97C66.2257 4.81 66.4457 5.79 66.4457 6.91H62.6957C62.5957 5.53 62.1257 4.56 61.2857 4C60.4457 3.42 59.3757 3.13 58.0757 3.13C57.6357 3.13 57.1857 3.18 56.7257 3.28C56.2657 3.36 55.8457 3.51 55.4657 3.73C55.0857 3.93 54.7657 4.21 54.5057 4.57C54.2657 4.93 54.1457 5.38 54.1457 5.92C54.1457 6.68 54.3757 7.28 54.8357 7.72C55.3157 8.14 55.9357 8.46 56.6957 8.68C56.7757 8.7 57.0857 8.79 57.6257 8.95C58.1857 9.09 58.8057 9.25 59.4857 9.43C60.1657 9.61 60.8257 9.79 61.4657 9.97C62.1257 10.13 62.5957 10.25 62.8757 10.33C63.5757 10.55 64.1857 10.85 64.7057 11.23C65.2257 11.61 65.6557 12.05 65.9957 12.55C66.3557 13.03 66.6157 13.55 66.7757 14.11C66.9557 14.67 67.0457 15.23 67.0457 15.79C67.0457 16.99 66.7957 18.02 66.2957 18.88C65.8157 19.72 65.1757 20.41 64.3757 20.95C63.5757 21.49 62.6657 21.88 61.6457 22.12C60.6257 22.38 59.5857 22.51 58.5257 22.51C57.3057 22.51 56.1557 22.36 55.0757 22.06C53.9957 21.76 53.0557 21.3 52.2557 20.68C51.4557 20.06 50.8157 19.27 50.3357 18.31C49.8557 17.33 49.6057 16.18 49.5857 14.86H53.3357ZM70.3288 0.579999H74.0788V10.33L83.6188 0.579999H88.2388L79.6888 9.13L88.8388 22H84.1588L77.1388 11.77L74.0788 14.8V22H70.3288V0.579999ZM92.7859 11.08H99.8059C101.226 11.08 102.376 10.72 103.256 10C104.136 9.28 104.576 8.18 104.576 6.7C104.576 5.22 104.136 4.12 103.256 3.4C102.376 2.68 101.226 2.32 99.8059 2.32H92.7859V11.08ZM90.7459 0.579999H100.256C101.216 0.579999 102.086 0.719999 102.866 0.999999C103.646 1.26 104.316 1.66 104.876 2.2C105.436 2.72 105.866 3.36 106.166 4.12C106.466 4.88 106.616 5.74 106.616 6.7C106.616 7.66 106.466 8.52 106.166 9.28C105.866 10.04 105.436 10.69 104.876 11.23C104.316 11.75 103.646 12.15 102.866 12.43C102.086 12.69 101.216 12.82 100.256 12.82H92.7859V22H90.7459V0.579999ZM110.446 13.6H118.876L114.736 2.62L110.446 13.6ZM113.686 0.579999H115.966L124.366 22H122.176L119.566 15.34H109.816L107.236 22H105.076L113.686 0.579999ZM130.056 13.18L121.656 0.579999H124.056L131.106 11.44L138.126 0.579999H140.556L132.096 13.18V22H130.056V13.18Z" fill="white"/>
</svg>
